<svg width="32" height="32" viewBox="0 0 32 32" fill="none" xmlns="http://www.w3.org/2000/svg">
<path d="M23.0533 15.9573C23.0547 16.1902 23.0102 16.4211 22.9224 16.6368C22.8346 16.8525 22.7051 17.0487 22.5415 17.2144C22.3778 17.38 22.1831 17.5118 21.9685 17.6023C21.7538 17.6927 21.5235 17.7399 21.2906 17.7413C21.0577 17.7401 20.8272 17.693 20.6124 17.6026C20.3976 17.5123 20.2028 17.3805 20.039 17.2149C19.8751 17.0492 19.7456 16.8528 19.6577 16.6371C19.5698 16.4213 19.5252 16.1903 19.5266 15.9573C19.5254 15.7244 19.5701 15.4936 19.6581 15.278C19.746 15.0624 19.8756 14.8662 20.0394 14.7006C20.2032 14.5351 20.398 14.4035 20.6127 14.3132C20.8274 14.223 21.0578 14.1759 21.2906 14.1747C22.264 14.1747 23.0533 14.9733 23.0533 15.9573Z" fill="black"/>
<path fill-rule="evenodd" clip-rule="evenodd" d="M24.176 9.87735C23.044 9.71735 21.5867 9.71735 19.7693 9.71735H12.2307C10.4133 9.71735 8.956 9.71735 7.824 9.87735C6.65466 10.044 5.68 10.4 4.95466 11.2373C4.23066 12.0747 4.008 13.0987 4 14.2947C3.992 15.4493 4.18533 16.9107 4.42533 18.732L4.912 22.428C5.1 23.852 5.252 25.0053 5.488 25.908C5.73466 26.8467 6.09733 27.6253 6.77866 28.228C7.45866 28.832 8.272 29.0933 9.224 29.2147C10.14 29.3333 11.2907 29.3333 12.7107 29.3333H19.2893C20.7093 29.3333 21.86 29.3333 22.776 29.216C23.7293 29.0933 24.54 28.832 25.2213 28.2293C25.9027 27.6253 26.2653 26.8467 26.512 25.908C26.748 25.0053 26.9 23.852 27.088 22.428L27.5747 18.732C27.8147 16.9107 28.008 15.4493 28 14.2947C27.9907 13.0987 27.7707 12.0747 27.0453 11.2373C26.32 10.4 25.3453 10.044 24.176 9.87735ZM8.06933 11.6427C7.10133 11.7813 6.61066 12.032 6.28266 12.412C5.952 12.792 5.77066 13.3173 5.76266 14.3067C5.756 15.3213 5.93066 16.6587 6.18266 18.5667L6.24933 19.072L6.744 18.7093C8.024 17.772 9.912 17.8187 11.128 18.836L15.64 22.6133C16.0667 22.9707 16.8013 23.0373 17.332 22.7253L17.6453 22.54C19.1453 21.6573 21.1573 21.7507 22.5413 22.7933L24.984 24.6333C25.104 23.9733 25.212 23.1613 25.348 22.1333L25.8173 18.5667C26.0693 16.66 26.244 15.3213 26.236 14.3067C26.2293 13.3173 26.048 12.792 25.7187 12.4133C25.3893 12.032 24.8987 11.7813 23.9293 11.6427C22.936 11.5013 21.6027 11.5 19.7 11.5H12.3C10.3973 11.5 9.06266 11.5013 8.06933 11.6427Z" fill="black"/>
<path opacity="0.7" d="M9.17331 6C7.50398 6 6.13464 7.12 5.67864 8.60533C5.66935 8.63633 5.66046 8.66744 5.65198 8.69867C6.12931 8.53867 6.62531 8.432 7.12931 8.36133C8.42531 8.176 10.064 8.176 11.968 8.176H20.2373C22.1413 8.176 23.78 8.176 25.0773 8.36133C25.58 8.432 26.0773 8.53733 26.5546 8.69867C26.5462 8.66744 26.5373 8.63633 26.528 8.60533C26.0706 7.12 24.7013 6 23.0346 6H9.17331Z" fill="black"/>
<path opacity="0.4" d="M11.812 2.66666H20.188C20.4666 2.66666 20.6813 2.66666 20.868 2.68666C21.5062 2.75811 22.1125 3.00393 22.6203 3.39718C23.1281 3.79042 23.5178 4.3159 23.7466 4.91599H8.2533C8.48217 4.3159 8.87186 3.79042 9.37965 3.39718C9.88743 3.00393 10.4937 2.75811 11.132 2.68666C11.3186 2.66666 11.532 2.66666 11.812 2.66666Z" fill="black"/>
</svg>
