<svg width="32" height="32" viewBox="0 0 32 32" fill="none" xmlns="http://www.w3.org/2000/svg">
<path fill-rule="evenodd" clip-rule="evenodd" d="M16 5.33334C13.171 5.33334 10.4579 6.45714 8.45749 8.45753C6.4571 10.4579 5.33329 13.171 5.33329 16V18.6667H7.99996C8.7072 18.6667 9.38548 18.9476 9.88558 19.4477C10.3857 19.9478 10.6666 20.6261 10.6666 21.3333V25.3333C10.6666 26.3942 10.2452 27.4116 9.49505 28.1618C8.74491 28.9119 7.72749 29.3333 6.66663 29.3333C5.60576 29.3333 4.58834 28.9119 3.8382 28.1618C3.08805 27.4116 2.66663 26.3942 2.66663 25.3333V16C2.66663 8.636 8.63596 2.66667 16 2.66667C23.364 2.66667 29.3333 8.636 29.3333 16V25.3333C29.3333 26.3942 28.9119 27.4116 28.1617 28.1618C27.4116 28.9119 26.3942 29.3333 25.3333 29.3333C24.2724 29.3333 23.255 28.9119 22.5049 28.1618C21.7547 27.4116 21.3333 26.3942 21.3333 25.3333V21.3333C21.3333 20.6261 21.6142 19.9478 22.1143 19.4477C22.6144 18.9476 23.2927 18.6667 24 18.6667H26.6666V16C26.6666 13.171 25.5428 10.4579 23.5424 8.45753C21.542 6.45714 18.8289 5.33334 16 5.33334Z" fill="black"/>
</svg>
