<svg width="32" height="32" viewBox="0 0 32 32" fill="none" xmlns="http://www.w3.org/2000/svg">
<path d="M28 10H24V2H22V10H13V8H11V10H8V8H6V10H4C3.46957 10 2.96086 10.2107 2.58579 10.5858C2.21071 10.9609 2 11.4696 2 12V28C2 28.5304 2.21071 29.0391 2.58579 29.4142C2.96086 29.7893 3.46957 30 4 30H28C28.5304 30 29.0391 29.7893 29.4142 29.4142C29.7893 29.0391 30 28.5304 30 28V12C30 11.4696 29.7893 10.9609 29.4142 10.5858C29.0391 10.2107 28.5304 10 28 10ZM4 28V12H28V28H4Z" fill="black"/>
<path d="M10 26C9.20888 26 8.43552 25.7654 7.77772 25.3259C7.11992 24.8864 6.60723 24.2616 6.30448 23.5307C6.00173 22.7998 5.92252 21.9956 6.07686 21.2196C6.2312 20.4437 6.61216 19.731 7.17157 19.1716C7.73098 18.6122 8.44372 18.2312 9.21964 18.0769C9.99556 17.9225 10.7998 18.0017 11.5307 18.3045C12.2616 18.6072 12.8864 19.1199 13.3259 19.7777C13.7654 20.4355 14 21.2089 14 22C14 23.0609 13.5786 24.0783 12.8284 24.8284C12.0783 25.5786 11.0609 26 10 26ZM10 20C9.60444 20 9.21776 20.1173 8.88886 20.3371C8.55996 20.5568 8.30362 20.8692 8.15224 21.2346C8.00087 21.6001 7.96126 22.0022 8.03843 22.3902C8.1156 22.7781 8.30608 23.1345 8.58579 23.4142C8.86549 23.6939 9.22186 23.8844 9.60982 23.9616C9.99778 24.0387 10.3999 23.9991 10.7654 23.8478C11.1308 23.6964 11.4432 23.44 11.6629 23.1111C11.8827 22.7822 12 22.3956 12 22C12 21.4696 11.7893 20.9609 11.4142 20.5858C11.0391 20.2107 10.5304 20 10 20ZM7 14H13V16H7V14ZM17 16H26V18H17V16ZM17 20H26V22H17V20ZM17 24H26V26H17V24Z" fill="black"/>
</svg>
